# xmcd
#
# Track frame offsets:
# 150
# 10345
# 23852
# 34742
# 45745
# 56142
# 68022
# 80935
# 90507
# 105650
# 118205
# 132637
# 144877
# 156900
# 168142
# 183147
# 199800
# 211477
# 223542
# 238467
# 249600
# 261432
#
# Disc length: 3603 seconds
#
#
# Revision: 0
# Processed by: cddbd v1.5.2PL0 Copyright (c) Steve Scherf et al.
# Submitted via: FreeRIP 2.942 
#
DISCID=480e1116
DTITLE=Carl Perkins - The Memorial Albem
DYEAR=1900
DGENRE=Country
TTITLE0=Blue Suede Shoes
TTITLE1=Country Soul
TTITLE2=Dixie Fried
TTITLE3=That's Right
TTITLE4=I Don't Like What I'm Seeing In You
TTITLE5=Rise And Shine
TTITLE6=Hallelujah Special
TTITLE7=All Mama's Children
TTITLE8=When Your 21
TTITLE9=Sundays Are Fun Days With My Lord
TTITLE10=Redneck
TTITLE11=Every Road
TTITLE12=Don't Get Off On Getting It On
TTITLE13=Standing In The Need Of Love
TTITLE14=I Don't Want To Fall In Love
TTITLE15=Sweeter Than Candy
TTITLE16=I Want You Back
TTITLE17=We Did It In '54
TTITLE18=The Hurt Put On By You
TTITLE19=I'm Sorry I'm Not Sorry
TTITLE20=Forever Yours
TTITLE21=Lend Me Your Comb
EXTD=
EXTT0=
EXTT1=
EXTT2=
EXTT3=
EXTT4=
EXTT5=
EXTT6=
EXTT7=
EXTT8=
EXTT9=
EXTT10=
EXTT11=
EXTT12=
EXTT13=
EXTT14=
EXTT15=
EXTT16=
EXTT17=
EXTT18=
EXTT19=
EXTT20=
EXTT21=
PLAYORDER=
